<svg width="512" height="512" viewBox="0 0 512 512" fill="none" xmlns="http://www.w3.org/2000/svg">
  <defs>
    <linearGradient id="gradient" x1="0%" y1="0%" x2="100%" y2="100%">
      <stop offset="0%" stop-color="#7c3aed" />
      <stop offset="100%" stop-color="#4f46e5" />
    </linearGradient>
  </defs>
  <path d="M368 32C306.1 32 256 82.1 256 144C256 168.6 264 191.4 277.6 210.4L32 456V512H88V456H144V400H200V344L245.6 298.4C264.6 312 287.4 320 312 320C373.9 320 424 269.9 424 208C424 146.1 373.9 32 312 32H368ZM368 112C385.7 112 400 126.3 400 144C400 161.7 385.7 176 368 176C350.3 176 336 161.7 336 144C336 126.3 350.3 112 368 112Z" fill="url(#gradient)"/>
  <circle cx="368" cy="144" r="32" fill="white" fill-opacity="0.9"/>
</svg>
